<svg xmlns="http://www.w3.org/2000/svg" viewBox="0 0 1919 1920" width="1919" height="1920"><defs></defs><g transform="matrix(1,0,0,1,0,0)">
<rect fill="#ffffff" x="0" y="0" width="1920" height="1920"/>
<g>
	<g>
		<path d="M0.00000000000022737367544323206,0 L1919.9999999999998,0 L1919.9999999999998,1920 L0.00000000000022737367544323206,1920 L0.00000000000022737367544323206,0 Z" fill="#0786ff" stroke="#000000" stroke-width="2"/>
	</g>
	<g>
		<path d="" fill="#fefefe" stroke="#000000" stroke-width="2"/>
	</g>
	<g>
		<g transform="matrix(1,0,0,1,0.0001,125.573620324)">
			<g transform="matrix(1,0,0,1,76.547256283,78.140258297)">
				<path d="M756.5035575630836,707.4718928254008 C756.5035575630836,707.4718928254008 717.5960108868677,517.8740557995895 590.6729906683915,418.5428594343392 C510.56787666389835,355.8518141429131 322.218630483379,372.1736041527656 217.67643382863253,412.0647055078663 C316.1984861532326,411.44307629248715 766.3762690899251,700.879064488929 756.5035575630836,707.4718928254008 Z" fill="#fefefe"/>
			</g>
			<g transform="matrix(1,0,0,1,76.547256283,78.140258297)">
				<path d="M1010.4018298718868,707.4718928254009 C1010.4018298718868,707.4718928254009 1049.3093765481026,517.8740557995897 1176.2323967665789,418.54285943433933 C1256.3375107710722,355.8518141429132 1444.6867569515914,372.17360415276573 1549.2289536063379,412.0647055078663 C1450.7069012817378,411.44307629248726 1000.5291183450453,700.8790644889291 1010.4018298718868,707.4718928254009 Z" fill="#fefefe"/>
			</g>
		</g>
		<g transform="matrix(1,0,0,1,0.0001,125.573620324)">
			<g>
				<path d="M833.1294547087695,992.2385054856613 C833.1835086519008,989.8762394378941 833.2107328750794,987.5050280681535 833.2107328750794,985.1253992501045 C833.2107328750794,858.8553415677159 756.5562047323436,756.2860713789754 662.1890353707549,756.2860713789754 C567.8218660091662,756.2860713789754 491.1673378664305,858.8553415677159 491.1673378664305,985.1253992501045 C491.1673378664305,1109.4040141809282 565.4230497197372,1210.7235308110269 657.7376054461749,1213.888499162076 C653.6982091900782,1197.473232627583 651.5238499825033,1180.0449722552717 651.5238499825033,1161.989723654115 C651.5238499825033,1064.3986817206946 715.0487889171624,985.1253992501045 793.2525012904439,985.1253992501045 C807.095017686625,985.1253992501045 820.477632270411,987.6091167374803 833.1294547087695,992.2385054856613 Z" fill="#fefefe"/>
			</g>
			<g>
				<path d="M1427.882163374005,1009.3638217601607 C1428.5104754724325,1001.3982917480585 1428.8326621335714,993.3116538911873 1428.8326621335714,985.1253992501033 C1428.8326621335714,858.8553415677147 1352.1781339908355,756.2860713789743 1257.8109646292469,756.2860713789743 C1163.4437952676583,756.2860713789743 1086.7892671249224,858.8553415677147 1086.7892671249224,985.1253992501033 C1086.7892671249224,1093.7488010036714 1143.5154885428735,1184.833041644134 1219.4453164321476,1208.1701644527932 C1216.2558579017123,1193.4456004333606 1214.5540371847253,1177.9630266442527 1214.5540371847253,1161.989723654114 C1214.5540371847253,1064.3986817206935 1278.0789761472915,985.1253992501033 1356.2826885205732,985.1253992501033 C1382.3910780968113,985.1253992501033 1406.8634228599367,993.960922438732 1427.882163374005,1009.3638217601607 Z" fill="#fefefe"/>
			</g>
		</g>
	</g>
</g></g></svg>